<?xml version="1.0" encoding="UTF-8"?> <!-- Creator: CorelDRAW 2021.5 --> <svg xmlns="http://www.w3.org/2000/svg" xmlns:xlink="http://www.w3.org/1999/xlink" xmlns:xodm="http://www.corel.com/coreldraw/odm/2003" xml:space="preserve" width="2480px" height="1240px" style="shape-rendering:geometricPrecision; text-rendering:geometricPrecision; image-rendering:optimizeQuality; fill-rule:evenodd; clip-rule:evenodd" viewBox="0 0 2480 1240.11"> <defs> <style type="text/css"> <![CDATA[ .fil0 {fill:#D90000} ]]> </style> </defs> <g id="Слой_x0020_1"> <metadata id="CorelCorpID_0Corel-Layer"></metadata> <path class="fil0" d="M397.4 583.31c-18.15,10.72 -40.68,11.16 -55.55,11.16l-34.99 0 0 -115.05 29.96 0c17.5,0 38.06,0 55.55,8.09 26.25,11.81 30.62,34.34 30.62,47.46 0,16.63 -5.68,36.53 -25.59,48.34zm1074.76 257.43c-15.09,0 -31.05,9.84 -34.33,29.31l69.11 0c-3.5,-19.91 -19.47,-29.31 -34.78,-29.31zm480.08 63.21c-4.37,-3.07 -10.5,-3.28 -14.21,-3.28l-20.13 0 0 29.3 19.25 0c4.38,0 10.72,-0.43 15.09,-3.71 2.63,-1.97 5.47,-6.13 5.47,-11.82 0,-5.24 -2.84,-8.74 -5.47,-10.49zm-1011.33 -468.71c-28.22,0 -57.52,18.15 -63.87,54.46l128.17 0c-6.12,-36.96 -36.09,-54.46 -64.3,-54.46zm-6.56 412.93c-10.72,0 -19.25,3.07 -26.69,9.85 -9.18,7.65 -13.78,17.93 -13.78,31.27 0,13.56 5.47,24.5 13.56,31.72 5.47,4.81 14.22,9.84 26.91,9.84 13.56,0 22.31,-5.47 27.55,-10.5 8.75,-8.09 12.91,-20.12 12.91,-31.06 0,-10.72 -4.38,-22.96 -12.47,-30.62 -7.43,-6.78 -18.15,-10.5 -27.99,-10.5zm-541.32 -485.54c0,-38.06 -29.31,-52.49 -62.55,-52.49l-23.84 0 0 106.95 23.18 0c12.47,0 63.21,-1.31 63.21,-54.46zm2086.97 -207.56l0 929.97c0,85.3 -69.77,155.07 -155.07,155.07l-2169.86 0c-85.3,-0.22 -155.07,-69.99 -155.07,-155.07l0 -929.97c0,-85.3 69.77,-155.07 155.07,-155.07l2169.86 0c85.3,0 155.07,69.77 155.07,155.07zm-1940.65 371.37c0,50.75 22.53,84.43 43.09,103.89 24.27,23.19 61.89,39.37 104.32,39.37 31.28,0 55.12,-9.4 69.99,-16.84l0 -74.36c-20.56,18.81 -43.09,23.84 -59.93,23.84 -45.71,0 -78.73,-32.59 -78.73,-76.99 0,-39.37 25.59,-76.33 76.33,-76.33 26.24,0 46.36,8.75 62.55,23.84l0 -75.02c-21.87,-10.72 -45.06,-16.18 -73.27,-16.18 -26.25,0 -64.3,5.68 -97.55,34.99 -27.55,24.28 -46.8,62.33 -46.8,109.79zm-314.07 134.51l139.97 0c36.31,0 74.37,-6.34 105.64,-33.68 28.65,-25.59 35.65,-59.93 35.65,-84.42 0,-21.87 -5.03,-54.46 -29.96,-78.08 -10.72,-10.06 -26.9,-21.87 -54.46,-26.25 11.15,-6.34 46.8,-28.21 46.8,-82.02 0,-34.99 -14.43,-67.58 -38.71,-86.39 -33.68,-26.24 -78.74,-26.24 -101.92,-26.24l-103.01 0 0 417.08zm149.6 155.51l-41.12 0 -67.37 89.89 0 -89.89 -41.11 0 0 145.88 41.11 0 67.37 -89.89 0 89.89 41.12 0 0 -145.88zm176.06 0l-41.12 0 0 51.62 -57.3 0 0 -51.62 -41.12 0 0 145.88 41.12 0 0 -59.27 57.3 0 0 59.27 41.12 0 0 -145.88zm141.29 3.94c-11.81,-5.69 -24.28,-8.75 -39.37,-8.75 -14.21,0 -34.77,3.06 -52.49,18.81 -14.87,13.12 -25.37,33.68 -25.37,59.27 0,27.34 12.03,45.49 23.18,55.99 13.13,12.47 33.47,21.22 56.21,21.22 16.85,0 29.75,-5.03 37.84,-9.19l0 -40.02c-11.15,10.06 -23.18,12.9 -32.37,12.9 -24.49,0 -42.43,-17.5 -42.43,-41.34 0,-21.21 13.78,-41.11 41.12,-41.11 14.22,0 24.93,4.81 33.68,12.9l0 -40.68zm143.04 -3.94l-122.04 0 0 34.99 40.46 0 0 110.89 41.12 0 0 -110.89 40.46 0 0 -34.99zm3.06 -184.81c26.9,25.59 59.93,38.05 103.89,38.05 94.48,0 125.1,-64.3 133.2,-84.42l-69.99 -11.16c-12.47,21.88 -34.34,35.66 -63.21,35.66 -29.31,0 -46.37,-14.44 -54.46,-25.59 -8.75,-11.82 -13.12,-29.31 -13.12,-45.72l202.53 0 0 -6.34c0,-29.31 -3.72,-71.96 -32.59,-106.29 -18.81,-22.53 -50.74,-44.4 -105.64,-44.4 -32.59,0 -69.99,6.78 -101.92,38.05 -19.47,19.47 -41.34,52.49 -41.34,106.3 0.22,42.65 12.69,77.64 42.65,105.86zm178.91 257.64c0,-28.87 -11.15,-47.24 -21.87,-57.96 -16.41,-16.4 -36.96,-19.46 -49.87,-19.46 -26.9,0 -41.12,14.43 -47.46,23.62l0 -18.81 -41.12 0 0 223.09 41.12 0 0 -96.02c16.18,21.87 36.74,23.62 46.8,23.62 21.66,0 38.5,-8.53 49.43,-18.81 8.53,-8.53 22.97,-26.24 22.97,-59.27zm59.71 150.26l117.67 -223.09 -46.59 0 -40.46 82.89 -45.06 -82.89 -47.89 0 69.33 124.01 -53.59 99.08 46.59 0zm303.57 -77.21l-26.68 -145.88 -30.4 0 -40.03 83.99 -40.02 -83.99 -30.4 0 -26.68 145.88 41.11 0 12.03 -79.17 36.31 79.17 14.87 0 36.31 -79.17 12.03 79.17 41.55 0zm165.13 -69.33c0,-15.75 -1.97,-38.71 -17.49,-57.3 -10.06,-12.03 -27.34,-23.84 -56.87,-23.84 -17.5,0 -37.84,3.71 -54.9,20.56 -10.5,10.49 -22.31,28.21 -22.31,57.3 0,22.96 6.78,41.77 22.97,56.86 14.43,13.78 32.37,20.56 55.99,20.56 50.96,0 67.36,-34.77 71.74,-45.49l-37.84 -6.12c-6.78,11.81 -18.59,19.24 -34.12,19.24 -15.75,0 -24.93,-7.65 -29.31,-13.78 -4.81,-6.34 -6.99,-15.74 -6.99,-24.49l109.13 0 0 -3.5zm166.01 -76.55l-41.12 0 0 51.62 -57.3 0 0 -51.62 -41.12 0 0 145.88 41.12 0 0 -59.27 57.3 0 0 59.27 41.12 0 0 -145.88zm143.47 0l-122.04 0 0 34.99 40.46 0 0 110.89 41.12 0 0 -110.89 40.46 0 0 -34.99zm145.01 97.98c0,-14.43 -4.81,-24.49 -11.15,-31.27 -10.06,-11.16 -26.25,-14.87 -39.15,-14.87l-31.94 0 0 -51.84 -41.11 0 0 145.88 75.23 0c9.85,0 21.88,-1.31 32.59,-10.71 7,-6.13 15.53,-17.94 15.53,-37.19zm56.43 -97.98l-41.12 0 0 145.88 41.12 0 0 -145.88zm197.94 -282.8c0,-85.51 -69.34,-155.07 -155.07,-155.07 -85.52,0 -155.07,69.34 -155.07,155.07 0,85.52 69.33,155.07 155.07,155.07 85.73,-0.22 155.07,-69.55 155.07,-155.07zm-82.24 -1.53l-28.22 -51.61 -29.74 0 43.31 77.2 -33.47 61.68 28.87 0 73.27 -139.1 -28.87 0 -25.15 51.83zm-68.24 -42.43c6.78,6.78 13.56,18.15 13.56,36.09 0,20.56 -8.97,31.71 -14.22,36.74 -6.99,6.56 -17.49,11.81 -30.83,11.81 -6.35,0 -19.03,-1.09 -29.09,-14.65l0 59.93 -25.59 0 0 -139.1 25.59 0 0 11.81c3.93,-5.69 12.9,-14.66 29.52,-14.66 7.88,-0.22 20.78,1.75 31.06,12.03zm-12.9 36.09c0,-6.78 -2.85,-14.22 -7.88,-19.03 -4.59,-4.15 -11.37,-6.56 -17.49,-6.56 -6.78,0 -12.03,1.97 -16.63,6.12 -5.68,4.82 -8.53,11.16 -8.53,19.47 0,8.31 3.28,15.31 8.32,19.68 3.28,2.85 8.74,6.13 16.84,6.13 8.31,0 13.78,-3.28 17.28,-6.56 5.68,-5.03 8.09,-12.47 8.09,-19.25zm-107.17 15.53c-9.19,0 -16.41,7.22 -16.41,16.4 0,9.19 7.22,16.4 16.41,16.4 9.18,0 16.4,-7.21 16.4,-16.4 0,-9.18 -7.22,-16.4 -16.4,-16.4z"></path> </g> </svg> 